<?xml version="1.0" encoding="UTF-8" standalone="no"?><!DOCTYPE svg PUBLIC "-//W3C//DTD SVG 1.1//EN" "http://www.w3.org/Graphics/SVG/1.1/DTD/svg11.dtd"><svg fill="white" width="100%" height="100%" viewBox="0 0 1242 437" version="1.1" xmlns="http://www.w3.org/2000/svg" xmlns:xlink="http://www.w3.org/1999/xlink" xml:space="preserve" xmlns:serif="http://www.serif.com/" style="fill-rule:evenodd;clip-rule:evenodd;stroke-linejoin:round;stroke-miterlimit:2;"><g id="Laag-1" serif:id="Laag 1"><path d="M1093.67,272.238l-48.764,-6.476l-86.018,-78.146l49.63,-0l120.531,78.713l-35.379,5.909Zm-194.446,-0l-46.716,-7.373l-49.258,-77.249l48.189,-0l85.977,77.962l-38.192,6.66Zm-187.683,-0l-42.249,-6.66l-13.375,-77.962l62.549,-0l36.474,77.249l-43.399,7.373Zm-139.49,-6.66l-42.25,6.66l-43.398,-7.373l36.473,-77.249l62.549,-0l-13.374,77.962Zm-183.217,-0.713l-46.716,7.373l-38.192,-6.66l85.978,-77.962l48.188,-0l-49.258,77.249Zm-192.398,0.897l-48.764,6.476l-35.379,-5.909l120.531,-78.713l49.63,-0l-86.018,78.146Zm1034.31,-14.724c-0.993,-0.91 -2.05,-1.805 -3.059,-2.711c-100.587,-90.304 -282.678,-162.687 -496.19,-184.338c-2.71,-0.315 -5.656,-0.613 -8.789,-0.893c-18.873,-37.281 -57.429,-62.882 -102.024,-63.095l-0,-0.001c-0.005,-0 -0.009,0.001 -0.014,0.001c-0.005,-0 -0.009,-0.001 -0.014,-0.001l-0,0.001c-44.595,0.213 -83.151,25.814 -102.024,63.095c-3.133,0.28 -6.079,0.578 -8.789,0.893c-213.512,21.651 -395.603,94.034 -496.19,184.338c-1.009,0.906 -2.066,1.801 -3.059,2.711c-6.547,6.561 -10.596,15.615 -10.596,25.616c-0,13.395 7.281,25.064 18.082,31.345c0.487,0.271 0.974,0.547 1.462,0.817c165.189,91.599 334.361,128.009 601.114,128.059l-0,0.001l0.028,-0l-0,-0.001c266.754,-0.05 435.925,-36.46 601.114,-128.059c0.488,-0.27 0.975,-0.546 1.462,-0.817c10.801,-6.281 18.082,-17.95 18.082,-31.345c-0,-10.001 -4.049,-19.055 -10.596,-25.616" style="fill-rule:nonzero;"/></g></svg>