<?xml version="1.0" encoding="UTF-8"?>
<svg id="b" data-name="Ebene 2" xmlns="http://www.w3.org/2000/svg" viewBox="0 0 159.881 159.881">
  <defs>
    <style>
      .d {
        fill: #f4edf8;
      }

      .e {
        fill: #d64c73;
      }

      .f {
        fill: #4cd68b;
      }
    </style>
  </defs>
  <g id="c" data-name="Ebene 1">
    <path class="d" d="M0,79.941C0,19.985,19.985,0,79.941,0s79.941,19.985,79.941,79.941-19.985,79.941-79.941,79.941S0,139.896,0,79.941"/>
    <path class="f" d="M61.448,36.516c-.127-.473-.219-.948-.281-1.423-1.141-8.701,9.246-11.484,12.609-3.379,.183,.442,.341,.9,.468,1.373,1.774,6.619,.896,14.803-2.637,15.75s-8.385-5.702-10.159-12.321Z"/>
    <path class="f" d="M57.171,57.171c2.587-2.587-.746-10.113-5.591-14.958-.346-.346-.711-.664-1.091-.955-6.965-5.338-14.569,2.265-9.23,9.23,.291,.38,.609,.745,.955,1.091,4.846,4.846,12.372,8.178,14.958,5.591Z"/>
    <path class="f" d="M48.837,71.606c.947-3.533-5.702-8.385-12.321-10.159-.473-.127-.948-.219-1.423-.281-8.701-1.141-11.484,9.246-3.379,12.609,.442,.183,.9,.341,1.373,.468,6.619,1.774,14.803,.896,15.75-2.637Z"/>
    <path class="f" d="M48.837,88.275c-.947-3.533-9.131-4.41-15.75-2.637-.473,.127-.93,.284-1.373,.468-8.106,3.363-5.322,13.75,3.379,12.609,.475-.062,.95-.155,1.423-.281,6.619-1.774,13.268-6.625,12.321-10.159Z"/>
    <path class="f" d="M57.171,102.71c-2.587-2.587-10.113,.746-14.958,5.591-.346,.346-.664,.711-.955,1.091-5.338,6.965,2.265,14.569,9.23,9.23,.38-.291,.745-.609,1.091-.955,4.846-4.846,8.178-12.372,5.591-14.958Z"/>
    <path class="f" d="M71.606,111.044c-3.533-.947-8.385,5.702-10.159,12.321-.127,.473-.219,.948-.281,1.423-1.141,8.701,9.246,11.484,12.609,3.379,.183-.442,.341-.9,.468-1.373,1.774-6.619,.896-14.803-2.637-15.75Z"/>
    <path class="f" d="M88.275,111.044c-3.533,.947-4.41,9.131-2.637,15.75,.127,.473,.284,.93,.468,1.373,3.363,8.106,13.75,5.322,12.609-3.379-.062-.475-.155-.95-.281-1.423-1.774-6.619-6.625-13.268-10.159-12.321Z"/>
    <path class="f" d="M102.71,102.71c-2.587,2.587,.746,10.113,5.591,14.958,.346,.346,.711,.664,1.091,.955,6.965,5.338,14.569-2.265,9.23-9.23-.291-.38-.609-.745-.955-1.091-4.846-4.846-12.372-8.178-14.958-5.591Z"/>
    <path class="f" d="M111.044,88.275c-.947,3.533,5.702,8.385,12.321,10.159,.473,.127,.948,.219,1.423,.281,8.701,1.141,11.484-9.246,3.379-12.609-.442-.183-.9-.341-1.373-.468-6.619-1.774-14.803-.896-15.75,2.637Z"/>
    <path class="e" d="M111.044,71.606c.947,3.533,9.131,4.41,15.75,2.637,.473-.127,.93-.284,1.373-.468,8.106-3.363,5.322-13.75-3.379-12.609-.475,.062-.95,.155-1.423,.281-6.619,1.774-13.268,6.625-12.321,10.159Z"/>
    <path class="e" d="M102.71,57.171c2.587,2.587,10.113-.746,14.958-5.591,.346-.346,.664-.711,.955-1.091,5.338-6.965-2.265-14.569-9.23-9.23-.38,.291-.745,.609-1.091,.955-4.846,4.846-8.178,12.372-5.591,14.958Z"/>
    <path class="e" d="M88.275,48.837c3.533,.947,8.385-5.702,10.159-12.321,.127-.473,.219-.948,.281-1.423,1.141-8.701-9.246-11.484-12.609-3.379-.183,.442-.341,.9-.468,1.373-1.774,6.619-.896,14.803,2.637,15.75Z"/>
  </g>
</svg>